<svg xmlns="http://www.w3.org/2000/svg" xmlns:xlink="http://www.w3.org/1999/xlink" width="2000" zoomAndPan="magnify" viewBox="0 0 1500 1499.999933" height="2000" preserveAspectRatio="xMidYMid meet" version="1.0"><defs><g/><clipPath id="d70d11c524"><rect x="0" width="711" y="0" height="211"/></clipPath></defs><g transform="matrix(1, 0, 0, 1, 395, 644)"><g clip-path="url(#d70d11c524)"><g fill="#0dae79" fill-opacity="1"><g transform="translate(0.678525, 150.914432)"><g><path d="M 56.03125 -64.453125 C 50.425781 -64.453125 45.601562 -62.375 41.5625 -58.21875 C 37.519531 -54.070312 35.5 -49.082031 35.5 -43.25 C 35.5 -37.300781 37.519531 -32.25 41.5625 -28.09375 C 45.601562 -23.945312 50.425781 -21.875 56.03125 -21.875 C 58.726562 -21.875 61.28125 -22.207031 63.6875 -22.875 C 66.101562 -23.550781 67.875 -24.226562 69 -24.90625 L 70.515625 -25.921875 L 80.609375 -5.21875 C 79.816406 -4.65625 78.71875 -3.953125 77.3125 -3.109375 C 75.914062 -2.265625 72.722656 -1.113281 67.734375 0.34375 C 62.742188 1.800781 57.382812 2.53125 51.65625 2.53125 C 38.976562 2.53125 27.84375 -1.925781 18.25 -10.84375 C 8.664062 -19.769531 3.875 -30.457031 3.875 -42.90625 C 3.875 -55.476562 8.664062 -66.28125 18.25 -75.3125 C 27.84375 -84.34375 38.976562 -88.859375 51.65625 -88.859375 C 57.382812 -88.859375 62.660156 -88.179688 67.484375 -86.828125 C 72.304688 -85.484375 75.726562 -84.140625 77.75 -82.796875 L 80.609375 -80.78125 L 70.515625 -60.40625 C 66.804688 -63.101562 61.976562 -64.453125 56.03125 -64.453125 Z M 56.03125 -64.453125 "/></g></g></g><g fill="#0dae79" fill-opacity="1"><g transform="translate(83.305695, 150.914432)"><g><path d="M 10.09375 0 L 10.09375 -144.71875 L 39.875 -144.71875 L 39.875 -77.234375 L 40.21875 -77.234375 C 47.957031 -84.984375 56.203125 -88.859375 64.953125 -88.859375 C 69.210938 -88.859375 73.445312 -88.296875 77.65625 -87.171875 C 81.863281 -86.046875 85.898438 -84.304688 89.765625 -81.953125 C 93.640625 -79.597656 96.78125 -76.257812 99.1875 -71.9375 C 101.601562 -67.625 102.8125 -62.601562 102.8125 -56.875 L 102.8125 0 L 73.03125 0 L 73.03125 -48.796875 C 73.03125 -53.285156 71.597656 -57.210938 68.734375 -60.578125 C 65.878906 -63.941406 62.148438 -65.625 57.546875 -65.625 C 53.066406 -65.625 49 -63.882812 45.34375 -60.40625 C 41.695312 -56.9375 39.875 -53.066406 39.875 -48.796875 L 39.875 0 Z M 10.09375 0 "/></g></g></g><g fill="#0dae79" fill-opacity="1"><g transform="translate(194.541058, 150.914432)"><g><path d="M 15.984375 -10.671875 C 7.910156 -19.484375 3.875 -30.285156 3.875 -43.078125 C 3.875 -55.867188 7.910156 -66.695312 15.984375 -75.5625 C 24.066406 -84.425781 34.332031 -88.859375 46.78125 -88.859375 C 58.226562 -88.859375 67.648438 -85.265625 75.046875 -78.078125 L 75.046875 -86.328125 L 104.84375 -86.328125 L 104.84375 0 L 75.390625 0 L 75.390625 -9.765625 L 75.046875 -9.765625 C 67.648438 -1.566406 58.226562 2.53125 46.78125 2.53125 C 34.332031 2.53125 24.066406 -1.867188 15.984375 -10.671875 Z M 41.3125 -57.71875 C 37.4375 -53.90625 35.5 -49.023438 35.5 -43.078125 C 35.5 -37.128906 37.347656 -32.273438 41.046875 -28.515625 C 44.753906 -24.765625 49.640625 -22.890625 55.703125 -22.890625 C 61.535156 -22.890625 66.332031 -24.796875 70.09375 -28.609375 C 73.851562 -32.421875 75.734375 -37.242188 75.734375 -43.078125 C 75.734375 -49.023438 73.796875 -53.90625 69.921875 -57.71875 C 66.046875 -61.53125 61.304688 -63.4375 55.703125 -63.4375 C 49.984375 -63.4375 45.1875 -61.53125 41.3125 -57.71875 Z M 41.3125 -57.71875 "/></g></g></g><g fill="#0dae79" fill-opacity="1"><g transform="translate(309.478668, 150.914432)"><g><path d="M 10.09375 0 L 10.09375 -86.328125 L 39.875 -86.328125 L 39.875 -77.234375 L 40.21875 -77.234375 C 47.957031 -84.984375 56.203125 -88.859375 64.953125 -88.859375 C 69.210938 -88.859375 73.445312 -88.296875 77.65625 -87.171875 C 81.863281 -86.046875 85.898438 -84.304688 89.765625 -81.953125 C 93.640625 -79.597656 96.78125 -76.257812 99.1875 -71.9375 C 101.601562 -67.625 102.8125 -62.601562 102.8125 -56.875 L 102.8125 0 L 73.03125 0 L 73.03125 -48.796875 C 73.03125 -53.285156 71.597656 -57.210938 68.734375 -60.578125 C 65.878906 -63.941406 62.148438 -65.625 57.546875 -65.625 C 53.066406 -65.625 49 -63.882812 45.34375 -60.40625 C 41.695312 -56.9375 39.875 -53.066406 39.875 -48.796875 L 39.875 0 Z M 10.09375 0 "/></g></g></g><g fill="#0dae79" fill-opacity="1"><g transform="translate(420.714014, 150.914432)"><g><path d="M 6.21875 21.203125 L 30.625 9.25 C 35.113281 16.65625 42.910156 20.359375 54.015625 20.359375 C 59.179688 20.359375 63.976562 18.703125 68.40625 15.390625 C 72.832031 12.085938 75.046875 7.015625 75.046875 0.171875 L 75.046875 -6.21875 C 69.773438 -0.382812 60.351562 2.53125 46.78125 2.53125 C 34.332031 2.53125 24.066406 -1.867188 15.984375 -10.671875 C 7.910156 -19.484375 3.875 -30.285156 3.875 -43.078125 C 3.875 -55.867188 7.910156 -66.695312 15.984375 -75.5625 C 24.066406 -84.425781 34.332031 -88.859375 46.78125 -88.859375 C 57.882812 -88.859375 67.140625 -85.4375 74.546875 -78.59375 L 75.046875 -78.59375 L 75.046875 -86.328125 L 104.84375 -86.328125 L 104.84375 2.359375 C 104.84375 16.378906 100.1875 27.203125 90.875 34.828125 C 81.5625 42.460938 69.273438 46.28125 54.015625 46.28125 C 29.335938 46.28125 13.40625 37.921875 6.21875 21.203125 Z M 41.3125 -57.71875 C 37.4375 -53.90625 35.5 -49.023438 35.5 -43.078125 C 35.5 -37.128906 37.347656 -32.273438 41.046875 -28.515625 C 44.753906 -24.765625 49.640625 -22.890625 55.703125 -22.890625 C 61.535156 -22.890625 66.332031 -24.796875 70.09375 -28.609375 C 73.851562 -32.421875 75.734375 -37.242188 75.734375 -43.078125 C 75.734375 -49.023438 73.796875 -53.90625 69.921875 -57.71875 C 66.046875 -61.53125 61.304688 -63.4375 55.703125 -63.4375 C 49.984375 -63.4375 45.1875 -61.53125 41.3125 -57.71875 Z M 41.3125 -57.71875 "/></g></g></g><g fill="#0dae79" fill-opacity="1"><g transform="translate(535.651624, 150.914432)"><g><path d="M 15.984375 -10.671875 C 7.910156 -19.484375 3.875 -30.285156 3.875 -43.078125 C 3.875 -55.867188 7.910156 -66.695312 15.984375 -75.5625 C 24.066406 -84.425781 34.332031 -88.859375 46.78125 -88.859375 C 58.226562 -88.859375 67.648438 -85.265625 75.046875 -78.078125 L 75.046875 -86.328125 L 104.84375 -86.328125 L 104.84375 0 L 75.390625 0 L 75.390625 -9.765625 L 75.046875 -9.765625 C 67.648438 -1.566406 58.226562 2.53125 46.78125 2.53125 C 34.332031 2.53125 24.066406 -1.867188 15.984375 -10.671875 Z M 41.3125 -57.71875 C 37.4375 -53.90625 35.5 -49.023438 35.5 -43.078125 C 35.5 -37.128906 37.347656 -32.273438 41.046875 -28.515625 C 44.753906 -24.765625 49.640625 -22.890625 55.703125 -22.890625 C 61.535156 -22.890625 66.332031 -24.796875 70.09375 -28.609375 C 73.851562 -32.421875 75.734375 -37.242188 75.734375 -43.078125 C 75.734375 -49.023438 73.796875 -53.90625 69.921875 -57.71875 C 66.046875 -61.53125 61.304688 -63.4375 55.703125 -63.4375 C 49.984375 -63.4375 45.1875 -61.53125 41.3125 -57.71875 Z M 41.3125 -57.71875 "/></g></g></g><g fill="#0dae79" fill-opacity="1"><g transform="translate(650.589163, 150.914432)"><g><path d="M 29.28125 -36.015625 C 34.664062 -36.015625 39.238281 -34.132812 43 -30.375 C 46.757812 -26.613281 48.640625 -22.039062 48.640625 -16.65625 C 48.640625 -11.382812 46.757812 -6.867188 43 -3.109375 C 39.238281 0.648438 34.664062 2.53125 29.28125 2.53125 C 24.007812 2.53125 19.492188 0.648438 15.734375 -3.109375 C 11.972656 -6.867188 10.09375 -11.382812 10.09375 -16.65625 C 10.09375 -22.039062 11.972656 -26.613281 15.734375 -30.375 C 19.492188 -34.132812 24.007812 -36.015625 29.28125 -36.015625 Z M 29.28125 -36.015625 "/></g></g></g></g></g></svg>